<mxfile host="app.diagrams.net" modified="2020-11-13T03:09:25.309Z" agent="5.0 (Windows NT 10.0; Win64; x64) AppleWebKit/537.36 (KHTML, like Gecko) Chrome/86.0.4240.111 Safari/537.36" etag="PRs2C89wcsRPspVwdQ2W" version="13.9.2" type="github">
  <diagram id="_EOCAi77XOAJ9oEXkqJe" name="第 1 页">
    <mxGraphModel dx="1955" dy="4196" grid="1" gridSize="10" guides="1" tooltips="1" connect="1" arrows="1" fold="1" page="1" pageScale="1" pageWidth="2339" pageHeight="3300" math="0" shadow="0">
      <root>
        <mxCell id="0" />
        <mxCell id="1" parent="0" />
        <mxCell id="ea-LpxU6wN2zHLPZi2gO-2" value="&lt;b&gt;&lt;font style=&quot;font-size: 72px&quot;&gt;1&lt;/font&gt;&lt;/b&gt;" style="ellipse;whiteSpace=wrap;html=1;" parent="1" vertex="1">
          <mxGeometry x="260" y="140" width="120" height="80" as="geometry" />
        </mxCell>
        <mxCell id="ea-LpxU6wN2zHLPZi2gO-3" value="&lt;b&gt;&lt;font style=&quot;font-size: 72px&quot;&gt;0&lt;/font&gt;&lt;/b&gt;" style="ellipse;whiteSpace=wrap;html=1;" parent="1" vertex="1">
          <mxGeometry x="120" y="140" width="120" height="80" as="geometry" />
        </mxCell>
        <mxCell id="ea-LpxU6wN2zHLPZi2gO-4" value="&lt;b&gt;&lt;font style=&quot;font-size: 72px&quot;&gt;2&lt;/font&gt;&lt;/b&gt;" style="ellipse;whiteSpace=wrap;html=1;" parent="1" vertex="1">
          <mxGeometry x="390" y="140" width="120" height="80" as="geometry" />
        </mxCell>
        <mxCell id="ea-LpxU6wN2zHLPZi2gO-5" value="&lt;span style=&quot;font-size: 72px&quot;&gt;&lt;b&gt;7&lt;/b&gt;&lt;/span&gt;" style="ellipse;whiteSpace=wrap;html=1;" parent="1" vertex="1">
          <mxGeometry x="1250" y="140" width="120" height="80" as="geometry" />
        </mxCell>
        <mxCell id="ea-LpxU6wN2zHLPZi2gO-6" value="&lt;b&gt;&lt;font style=&quot;font-size: 72px&quot;&gt;6&lt;/font&gt;&lt;/b&gt;" style="ellipse;whiteSpace=wrap;html=1;" parent="1" vertex="1">
          <mxGeometry x="1100" y="140" width="120" height="80" as="geometry" />
        </mxCell>
        <mxCell id="ea-LpxU6wN2zHLPZi2gO-7" value="&lt;font style=&quot;font-size: 72px&quot;&gt;&lt;b&gt;9&lt;/b&gt;&lt;/font&gt;" style="ellipse;whiteSpace=wrap;html=1;" parent="1" vertex="1">
          <mxGeometry x="960" y="140" width="120" height="80" as="geometry" />
        </mxCell>
        <mxCell id="ea-LpxU6wN2zHLPZi2gO-8" value="&lt;b&gt;&lt;font style=&quot;font-size: 72px&quot;&gt;5&lt;/font&gt;&lt;/b&gt;" style="ellipse;whiteSpace=wrap;html=1;" parent="1" vertex="1">
          <mxGeometry x="820" y="140" width="120" height="80" as="geometry" />
        </mxCell>
        <mxCell id="ea-LpxU6wN2zHLPZi2gO-9" value="&lt;b&gt;&lt;font style=&quot;font-size: 72px&quot;&gt;4&lt;/font&gt;&lt;/b&gt;" style="ellipse;whiteSpace=wrap;html=1;" parent="1" vertex="1">
          <mxGeometry x="670" y="140" width="120" height="80" as="geometry" />
        </mxCell>
        <mxCell id="ea-LpxU6wN2zHLPZi2gO-10" value="&lt;b&gt;&lt;font style=&quot;font-size: 72px&quot;&gt;3&lt;/font&gt;&lt;/b&gt;" style="ellipse;whiteSpace=wrap;html=1;" parent="1" vertex="1">
          <mxGeometry x="530" y="140" width="120" height="80" as="geometry" />
        </mxCell>
        <mxCell id="ea-LpxU6wN2zHLPZi2gO-14" value="" style="endArrow=none;html=1;" parent="1" edge="1">
          <mxGeometry width="50" height="50" relative="1" as="geometry">
            <mxPoint x="860" y="120" as="sourcePoint" />
            <mxPoint x="860" y="-320" as="targetPoint" />
          </mxGeometry>
        </mxCell>
        <mxCell id="ea-LpxU6wN2zHLPZi2gO-15" value="&lt;span style=&quot;font-size: 72px&quot;&gt;&lt;b&gt;8&lt;/b&gt;&lt;/span&gt;" style="ellipse;whiteSpace=wrap;html=1;" parent="1" vertex="1">
          <mxGeometry x="1400" y="140" width="120" height="80" as="geometry" />
        </mxCell>
        <mxCell id="ynPJpaAH1sRHCTOOz7BC-1" value="" style="shape=curlyBracket;whiteSpace=wrap;html=1;rounded=1;rotation=90;" vertex="1" parent="1">
          <mxGeometry x="445" y="-70" width="10" height="200" as="geometry" />
        </mxCell>
        <mxCell id="ynPJpaAH1sRHCTOOz7BC-2" value="&lt;font style=&quot;font-size: 72px&quot;&gt;&lt;b&gt;5&lt;/b&gt;&lt;/font&gt;" style="ellipse;whiteSpace=wrap;html=1;" vertex="1" parent="1">
          <mxGeometry x="730" y="420" width="120" height="80" as="geometry" />
        </mxCell>
        <mxCell id="ynPJpaAH1sRHCTOOz7BC-5" value="" style="endArrow=none;html=1;" edge="1" parent="1">
          <mxGeometry width="50" height="50" relative="1" as="geometry">
            <mxPoint x="900" y="110" as="sourcePoint" />
            <mxPoint x="900" y="-330" as="targetPoint" />
          </mxGeometry>
        </mxCell>
        <mxCell id="ynPJpaAH1sRHCTOOz7BC-6" value="&lt;font style=&quot;font-size: 48px&quot;&gt;666&lt;/font&gt;" style="ellipse;whiteSpace=wrap;html=1;" vertex="1" parent="1">
          <mxGeometry x="290" y="840" width="120" height="80" as="geometry" />
        </mxCell>
        <mxCell id="ynPJpaAH1sRHCTOOz7BC-8" value="&lt;font style=&quot;font-size: 48px&quot;&gt;555&lt;/font&gt;" style="ellipse;whiteSpace=wrap;html=1;" vertex="1" parent="1">
          <mxGeometry x="120" y="840" width="120" height="80" as="geometry" />
        </mxCell>
        <mxCell id="ynPJpaAH1sRHCTOOz7BC-9" value="&lt;font style=&quot;font-size: 48px&quot;&gt;563&lt;/font&gt;" style="ellipse;whiteSpace=wrap;html=1;" vertex="1" parent="1">
          <mxGeometry x="1880" y="820" width="120" height="80" as="geometry" />
        </mxCell>
        <mxCell id="ynPJpaAH1sRHCTOOz7BC-10" value="&lt;font style=&quot;font-size: 48px&quot;&gt;541&lt;/font&gt;" style="ellipse;whiteSpace=wrap;html=1;" vertex="1" parent="1">
          <mxGeometry x="1730" y="820" width="120" height="80" as="geometry" />
        </mxCell>
        <mxCell id="ynPJpaAH1sRHCTOOz7BC-11" value="&lt;font style=&quot;font-size: 48px&quot;&gt;526&lt;/font&gt;" style="ellipse;whiteSpace=wrap;html=1;" vertex="1" parent="1">
          <mxGeometry x="1570" y="830" width="120" height="80" as="geometry" />
        </mxCell>
        <mxCell id="ynPJpaAH1sRHCTOOz7BC-12" value="&lt;font style=&quot;font-size: 48px&quot;&gt;574&lt;/font&gt;" style="ellipse;whiteSpace=wrap;html=1;" vertex="1" parent="1">
          <mxGeometry x="1420" y="830" width="120" height="80" as="geometry" />
        </mxCell>
        <mxCell id="ynPJpaAH1sRHCTOOz7BC-13" value="&lt;font style=&quot;font-size: 48px&quot;&gt;513&lt;/font&gt;" style="ellipse;whiteSpace=wrap;html=1;" vertex="1" parent="1">
          <mxGeometry x="1280" y="830" width="120" height="80" as="geometry" />
        </mxCell>
        <mxCell id="ynPJpaAH1sRHCTOOz7BC-14" value="&lt;font style=&quot;font-size: 48px&quot;&gt;568&lt;/font&gt;" style="ellipse;whiteSpace=wrap;html=1;" vertex="1" parent="1">
          <mxGeometry x="1120" y="840" width="120" height="80" as="geometry" />
        </mxCell>
        <mxCell id="ynPJpaAH1sRHCTOOz7BC-15" value="&lt;font style=&quot;font-size: 48px&quot;&gt;544&lt;/font&gt;" style="ellipse;whiteSpace=wrap;html=1;" vertex="1" parent="1">
          <mxGeometry x="970" y="840" width="120" height="80" as="geometry" />
        </mxCell>
        <mxCell id="ynPJpaAH1sRHCTOOz7BC-16" value="&lt;font style=&quot;font-size: 48px&quot;&gt;533&lt;/font&gt;" style="ellipse;whiteSpace=wrap;html=1;" vertex="1" parent="1">
          <mxGeometry x="810" y="840" width="120" height="80" as="geometry" />
        </mxCell>
        <mxCell id="ynPJpaAH1sRHCTOOz7BC-17" value="&lt;font style=&quot;font-size: 48px&quot;&gt;526&lt;/font&gt;" style="ellipse;whiteSpace=wrap;html=1;" vertex="1" parent="1">
          <mxGeometry x="630" y="840" width="120" height="80" as="geometry" />
        </mxCell>
        <mxCell id="ynPJpaAH1sRHCTOOz7BC-18" value="&lt;font style=&quot;font-size: 48px&quot;&gt;512&lt;/font&gt;" style="ellipse;whiteSpace=wrap;html=1;" vertex="1" parent="1">
          <mxGeometry x="455" y="840" width="120" height="80" as="geometry" />
        </mxCell>
        <mxCell id="ynPJpaAH1sRHCTOOz7BC-20" value="&lt;font style=&quot;font-size: 48px&quot;&gt;0&lt;/font&gt;" style="rounded=1;whiteSpace=wrap;html=1;" vertex="1" parent="1">
          <mxGeometry x="280" y="1020" width="120" height="60" as="geometry" />
        </mxCell>
        <mxCell id="ynPJpaAH1sRHCTOOz7BC-21" value="&lt;font style=&quot;font-size: 48px&quot;&gt;8&lt;/font&gt;" style="rounded=1;whiteSpace=wrap;html=1;" vertex="1" parent="1">
          <mxGeometry x="1480" y="1020" width="120" height="60" as="geometry" />
        </mxCell>
        <mxCell id="ynPJpaAH1sRHCTOOz7BC-22" value="&lt;font style=&quot;font-size: 48px&quot;&gt;7&lt;/font&gt;" style="rounded=1;whiteSpace=wrap;html=1;" vertex="1" parent="1">
          <mxGeometry x="1330" y="1010" width="120" height="60" as="geometry" />
        </mxCell>
        <mxCell id="ynPJpaAH1sRHCTOOz7BC-23" value="&lt;font style=&quot;font-size: 48px&quot;&gt;6&lt;/font&gt;" style="rounded=1;whiteSpace=wrap;html=1;" vertex="1" parent="1">
          <mxGeometry x="1170" y="1020" width="120" height="60" as="geometry" />
        </mxCell>
        <mxCell id="ynPJpaAH1sRHCTOOz7BC-24" value="&lt;font style=&quot;font-size: 48px&quot;&gt;5&lt;/font&gt;" style="rounded=1;whiteSpace=wrap;html=1;" vertex="1" parent="1">
          <mxGeometry x="1040" y="1010" width="120" height="60" as="geometry" />
        </mxCell>
        <mxCell id="ynPJpaAH1sRHCTOOz7BC-25" value="&lt;font style=&quot;font-size: 48px&quot;&gt;4&lt;/font&gt;" style="rounded=1;whiteSpace=wrap;html=1;" vertex="1" parent="1">
          <mxGeometry x="890" y="1010" width="120" height="60" as="geometry" />
        </mxCell>
        <mxCell id="ynPJpaAH1sRHCTOOz7BC-26" value="&lt;font style=&quot;font-size: 48px&quot;&gt;3&lt;/font&gt;" style="rounded=1;whiteSpace=wrap;html=1;" vertex="1" parent="1">
          <mxGeometry x="740" y="1010" width="120" height="60" as="geometry" />
        </mxCell>
        <mxCell id="ynPJpaAH1sRHCTOOz7BC-27" value="&lt;font style=&quot;font-size: 48px&quot;&gt;2&lt;/font&gt;" style="rounded=1;whiteSpace=wrap;html=1;" vertex="1" parent="1">
          <mxGeometry x="590" y="1020" width="120" height="60" as="geometry" />
        </mxCell>
        <mxCell id="ynPJpaAH1sRHCTOOz7BC-28" value="&lt;font style=&quot;font-size: 48px&quot;&gt;1&lt;/font&gt;" style="rounded=1;whiteSpace=wrap;html=1;" vertex="1" parent="1">
          <mxGeometry x="440" y="1020" width="120" height="60" as="geometry" />
        </mxCell>
        <mxCell id="ynPJpaAH1sRHCTOOz7BC-30" value="&lt;font style=&quot;font-size: 36px&quot;&gt;9&lt;/font&gt;" style="rounded=1;whiteSpace=wrap;html=1;" vertex="1" parent="1">
          <mxGeometry x="1630" y="1020" width="120" height="60" as="geometry" />
        </mxCell>
      </root>
    </mxGraphModel>
  </diagram>
</mxfile>
